<svg width="600" height="600" viewBox="0 0 600 600" fill="none" xmlns="http://www.w3.org/2000/svg">
<rect width="600" height="600" fill="#DBDBDB"/>
<path d="M236 260C236 251.25 243 244 252 244H348C356.75 244 364 251.25 364 260V340C364 349 356.75 356 348 356H252C243 356 236 349 236 340V260ZM316.75 286.75C315.75 285 313.75 284 312 284C310 284 308 285 307 286.75L285.25 318.75L278.5 310.25C277.5 309 275.75 308 274 308C272 308 270.25 309 269.25 310.25L253.25 330.25C251.75 332.25 251.5 334.75 252.5 336.75C253.5 338.75 255.5 340 258 340H282H290H342C344 340 346.25 339 347.25 337C348.25 335 348 332.5 346.75 330.75L316.75 286.75ZM264 284C268.25 284 272 281.75 274.25 278C276.5 274.5 276.5 269.75 274.25 266C272 262.5 268.25 260 264 260C259.5 260 255.75 262.5 253.5 266C251.25 269.75 251.25 274.5 253.5 278C255.75 281.75 259.5 284 264 284Z" fill="#BABABA"/>
</svg>
