<svg width="1280" height="738" viewBox="0 0 1280 738" fill="none" xmlns="http://www.w3.org/2000/svg">
<rect width="1280" height="738" fill="#DBDBDB"/>
<path d="M540 306.5C540 292.828 550.938 281.5 565 281.5H715C728.672 281.5 740 292.828 740 306.5V431.5C740 445.562 728.672 456.5 715 456.5H565C550.938 456.5 540 445.562 540 431.5V306.5ZM666.172 348.297C664.609 345.562 661.484 344 658.75 344C655.625 344 652.5 345.562 650.938 348.297L616.953 398.297L606.406 385.016C604.844 383.062 602.109 381.5 599.375 381.5C596.25 381.5 593.516 383.062 591.953 385.016L566.953 416.266C564.609 419.391 564.219 423.297 565.781 426.422C567.344 429.547 570.469 431.5 574.375 431.5H611.875H624.375H705.625C708.75 431.5 712.266 429.938 713.828 426.812C715.391 423.688 715 419.781 713.047 417.047L666.172 348.297ZM583.75 344C590.391 344 596.25 340.484 599.766 334.625C603.281 329.156 603.281 321.734 599.766 315.875C596.25 310.406 590.391 306.5 583.75 306.5C576.719 306.5 570.859 310.406 567.344 315.875C563.828 321.734 563.828 329.156 567.344 334.625C570.859 340.484 576.719 344 583.75 344Z" fill="#BABABA"/>
</svg>
