<svg width="400" height="250" viewBox="0 0 400 250" fill="none" xmlns="http://www.w3.org/2000/svg">
<rect width="400" height="250" fill="#DBDBDB"/>
<path d="M168 105C168 100.625 171.5 97 176 97H224C228.375 97 232 100.625 232 105V145C232 149.5 228.375 153 224 153H176C171.5 153 168 149.5 168 145V105ZM208.375 118.375C207.875 117.5 206.875 117 206 117C205 117 204 117.5 203.5 118.375L192.625 134.375L189.25 130.125C188.75 129.5 187.875 129 187 129C186 129 185.125 129.5 184.625 130.125L176.625 140.125C175.875 141.125 175.75 142.375 176.25 143.375C176.75 144.375 177.75 145 179 145H191H195H221C222 145 223.125 144.5 223.625 143.5C224.125 142.5 224 141.25 223.375 140.375L208.375 118.375ZM182 117C184.125 117 186 115.875 187.125 114C188.25 112.25 188.25 109.875 187.125 108C186 106.25 184.125 105 182 105C179.75 105 177.875 106.25 176.75 108C175.625 109.875 175.625 112.25 176.75 114C177.875 115.875 179.75 117 182 117Z" fill="#BABABA"/>
</svg>
