<?xml version="1.0" encoding="UTF-8"?>
<svg id="Layer_2" data-name="Layer 2" xmlns="http://www.w3.org/2000/svg" viewBox="0 0 51.1 51.6">
  <defs>
    <style>
      .cls-1 {
        fill: #fff;
      }

      .cls-2 {
        fill: #494949;
      }
    </style>
  </defs>
  <g id="Layer_1-2" data-name="Layer 1">
    <g>
      <path class="cls-1" d="M31.1,18.7c-.1,0-.2,0-.4,0s-.3,0-.4.1-.2.2-.3.3c0,0,0,.2,0,.3h1.4c0-.1,0-.3,0-.4,0-.1-.1-.2-.2-.3Z"/>
      <path class="cls-1" d="M20,18.8c-.1,0-.2,0-.3,0,0,0-.1.1-.2.2,0,.1,0,.2,0,.4,0,.2,0,.4.2.5.1.1.2.2.4.2s.2,0,.3,0c0,0,.1-.1.2-.2,0-.1,0-.2,0-.4,0-.2,0-.4-.2-.5-.1-.1-.2-.2-.4-.2Z"/>
      <path class="cls-1" d="M35.4,18.6c-.1,0-.3,0-.4.1-.1,0-.2.2-.2.3,0,.1,0,.3,0,.5,0,.3,0,.5.2.7.1.2.3.2.5.2s.3,0,.4-.1c.1,0,.2-.2.3-.3,0-.1,0-.3,0-.5,0-.3,0-.5-.2-.7s-.3-.2-.5-.2Z"/>
      <path class="cls-1" d="M32.8,19.6c-.2,0-.3,0-.3.1s0,.1,0,.2,0,.2.1.3c0,0,.2.1.4.1s.2,0,.3,0c0,0,.2-.1.2-.3,0-.1,0-.2,0-.4h0c0-.1-.1-.1-.1-.1-.3,0-.5,0-.6,0Z"/>
      <path class="cls-1" d="M8.5,7.2c0,.1-.2.2-.3.3-.2.2-.4.5-.7.8,0,0,0,0-.1.1L1.7,17l6.8,5.7,2-2.1c.3-7.7-1.1-12-1.8-13.8-.1.1-.2.2-.3.4Z"/>
      <path class="cls-1" d="M43.7,8.5c-.3-.3-.5-.6-.7-.9-.1-.1-.2-.3-.4-.4,0,0-.2-.2-.2-.3-.7,1.7-2.1,6.1-1.8,13.8l2,2.1,6.8-5.7-5.7-8.6Z"/>
      <path class="cls-1" d="M51.1,17.2h0s0,0,0,0c0,0,0,0,0,0h0s0,0,0,0Z"/>
      <path class="cls-1" d="M25.3,9h.4c6.1,0,8.4-4.3,9.1-6.2l-2.5-1c0,0,0,.1,0,.2,0,0,0,0,0,0-.1.3-.3.5-.5.9,0,0,0,0,0,.1,0,.1-.1.2-.2.3,0,0,0,.1-.1.2,0,.1-.2.2-.2.3,0,0,0,.1-.1.2-.1.2-.3.3-.4.4,0,0,0,0-.1.1-.1.1-.2.2-.3.3,0,0-.1,0-.2.1-.1,0-.2.2-.3.3,0,0-.1,0-.2.1-.2.1-.3.2-.5.3,0,0,0,0,0,0-.2.1-.4.2-.7.3,0,0,0,0,0,0-.2,0-.4.1-.6.2,0,0-.1,0-.2,0-.2,0-.4,0-.6.1,0,0-.1,0-.2,0-.3,0-.6,0-.9,0h-.3c0,0-.1,0-.2,0,0,0-.2,0-.2,0-.1,0-.3,0-.4,0-.2,0-.3,0-.5,0,0,0-.1,0-.2,0-2.7-.6-4.2-2.7-4.9-4.2,0,0,0-.2-.1-.2,0,0,0,0,0,0,0,0,0,0,0-.1l-1.3.5-1.2.5c.7,1.9,2.9,6.2,9.1,6.2Z"/>
      <path class="cls-1" d="M39.8,4.8l-3.6-1.5c-.8,2.1-3.4,7.1-10.5,7.1h-.4c-7,0-9.7-5.1-10.4-7.1l-3.6,1.5s-.5.2-1.4.9c.7,1.5,2.5,6.3,2.1,15.2,0,.8.4,9.9.4,28.5,1.9.2,7.6.7,12.9.7h.3c5.3,0,11-.5,12.9-.7,0-19,.4-28.1.4-28.5-.4-8.8,1.4-13.6,2.1-15.2-.8-.7-1.3-.9-1.4-.9ZM16.7,20.3c0,0,0,.2,0,.2,0,0-.1,0-.2,0s-.2,0-.2,0c0,0,0-.1,0-.2v-1.6c0,0,0-.2,0-.2,0,0,.1,0,.2,0s.2,0,.2,0,0,.1,0,.2v1.6ZM16.7,17.9c0,0-.1,0-.2,0s-.2,0-.2,0c0,0,0-.1,0-.2s0-.2,0-.2c0,0,.1,0,.2,0s.2,0,.2,0,0,.1,0,.2,0,.2,0,.2ZM18.7,18.7s-.1,0-.2,0h0c-.2,0-.3,0-.4.2,0,0-.1.2-.1.4v.9c0,0,0,.2,0,.2,0,0-.1,0-.2,0s-.2,0-.2,0,0-.1,0-.2v-1.7c0,0,0-.2,0-.2,0,0,.1,0,.2,0s.2,0,.2,0,0,.1,0,.2v.2c0-.1.1-.2.2-.3.1,0,.3-.1.5-.2,0,0,.1,0,.1,0s0,0,0,.2c0,0,0,.1,0,.2ZM21.1,19.9c0,.1-.1.3-.2.4,0,.1-.2.2-.4.2-.1,0-.3,0-.5,0s-.4,0-.6-.1c-.2,0-.3-.2-.4-.4,0-.2-.1-.4-.1-.6s0-.3,0-.5.1-.3.2-.4c0-.1.2-.2.4-.2.1,0,.3,0,.5,0s.4,0,.6.1c.2,0,.3.2.4.4,0,.2.1.4.1.6s0,.3,0,.5ZM23.7,20.3c0,0,0,.2,0,.2,0,0-.1,0-.2,0s-.2,0-.2,0,0-.1,0-.2v-1.1c0-.2,0-.3,0-.4,0,0-.2-.1-.3-.1s-.3,0-.4.2c0,.1-.1.2-.1.4v1c0,.2,0,.3-.3.3s-.2,0-.2,0c0,0,0-.1,0-.2v-1.7c0,0,0-.2,0-.2,0,0,.1,0,.2,0s.2,0,.2,0,0,.1,0,.2h0c0,0,.1-.1.3-.2.1,0,.3-.1.5-.1s.3,0,.4,0,.2.2.3.3,0,.3,0,.5v1.1ZM25.5,20.5s0,0,0,0c0,0,0,0-.1,0,0,0-.1,0-.2,0-.2,0-.3,0-.4,0s-.2-.1-.2-.3c0-.1,0-.2,0-.4v-1.2h-.3s0,0,0,0c0,0,0,0,0,0s0,0,0,0c0,0,0,0,0,0h.3v-.6s0,0,0-.1c0,0,0,0,.1,0s0,0,0,0c0,0,0,0,0,.1v.6h.6s0,0,0,0c0,0,0,0,0,0s0,0,0,0c0,0,0,0,0,0h-.6v1.2c0,.2,0,.3.1.4,0,0,.2.1.4.1s.1,0,.1,0c0,0,0,0,.1,0s0,0,0,0c0,0,0,0,0,0s0,0,0,0ZM27.6,20.5s0,0,0,.1,0,0,0,0,0,0-.1,0c0,0,0,0,0-.1v-1.2c0-.2,0-.4-.1-.5,0,0-.2-.1-.4-.1s-.4,0-.5.2c-.1.1-.2.3-.2.5v1.1c0,0,0,.1-.1.1s0,0-.1,0,0,0,0-.1v-2.9s0,0,0-.1c0,0,0,0,.1,0s0,0,0,0c0,0,0,0,0,.1v1.3c0-.1.1-.2.3-.3.1,0,.3-.1.5-.1s.3,0,.4,0c.1,0,.2.2.3.3,0,.1,0,.3,0,.5v1.3ZM29.4,18.6s0,0-.1,0h0c-.2,0-.4,0-.5.2s-.2.3-.2.5v1.2s0,0,0,.1c0,0,0,0-.1,0s0,0-.1,0,0,0,0-.1v-1.9s0,0,0-.1c0,0,0,0,.1,0s0,0,0,0c0,0,0,0,0,.1v.3c0-.1.1-.2.2-.3.1,0,.3-.1.5-.1,0,0,0,0,0,0,0,0,0,0,0,0,0,0,0,0,0,0ZM31.6,19.5s0,0,0,0h-1.5c0,.3,0,.5.2.6.1.2.3.2.6.2s.2,0,.3,0c.1,0,.2,0,.3-.2,0,0,0,0,0,0s0,0,0,0c0,0,0,0,0,0,0,0,0,0,0,0s0,0,0,0c0,0-.2.1-.3.2-.1,0-.3,0-.4,0-.2,0-.4,0-.6-.1-.2,0-.3-.2-.4-.4,0-.2-.1-.4-.1-.6s0-.4.1-.6c0-.2.2-.3.4-.4.2,0,.3-.1.5-.1s.3,0,.4,0c.1,0,.2.1.3.2s.1.2.2.3c0,.1,0,.3,0,.4s0,0,0,0ZM33.8,20.5s0,0,0,.1c0,0,0,0,0,0s0,0,0,0,0,0,0-.1v-.3c0,0,0,.1,0,.2,0,0-.2.1-.3.2-.1,0-.2,0-.3,0s-.3,0-.4,0c-.1,0-.2-.1-.3-.2,0,0-.1-.2-.1-.3s0-.3.1-.4c0,0,.2-.2.4-.2s.5,0,.8,0h.1v-.2c0-.2,0-.3-.1-.4s-.2-.1-.4-.1-.2,0-.3,0c-.1,0-.2,0-.3.1,0,0,0,0,0,0s0,0,0,0c0,0,0,0,0,0,0,0,0,0,0,0,0,0,0,0,0,0,.1,0,.3-.1.4-.2s.3,0,.4,0c.2,0,.3,0,.4,0,.1,0,.2.1.3.3,0,.1,0,.3,0,.5v1.3ZM36.4,20.5s0,0,0,.1c0,0,0,0,0,0s0,0-.1,0,0,0,0-.1v-.3c0,.1-.1.2-.2.3-.1.1-.3.2-.5.2s-.4,0-.5-.1-.3-.2-.3-.4c0-.2-.1-.4-.1-.6s0-.4.1-.6c0-.2.2-.3.3-.4s.3-.1.5-.1.4,0,.5.2c.1,0,.2.2.2.3v-1.3s0,0,0-.1c0,0,0,0,0,0s0,0,.1,0c0,0,0,0,0,.1v2.9Z"/>
      <path class="cls-1" d="M21.2,2.9c0,0,.1.2.2.2,0,0,.1.1.2.2,0,0,.2.2.3.3,0,0,0,0,.1.1.1,0,.2.2.3.3,0,0,0,0,.1,0,.1,0,.2.2.4.2,0,0,.1,0,.2.1.1,0,.2.1.4.2.1,0,.2,0,.3.1,0,0,.2,0,.2,0,.2,0,.4.1.7.1h0c.3,0,.5,0,.8,0h.3c1.4,0,2.4-.5,3.2-1.1,0,0,0,0,0,0,.1-.1.3-.2.4-.4,0,0,0,0,0,0,.1-.1.2-.2.3-.3,0,0,0,0,.1-.1,0-.1.2-.2.2-.3,0,0,0,0,0,0,0,0,0,0-.1,0-.2,0-.4.2-.7.2,0,0,0,0,0,0-.2,0-.5.1-.7.2,0,0-.1,0-.2,0-.2,0-.4,0-.6.1,0,0,0,0,0,0-.2,0-.4,0-.6,0,0,0,0,0,0,0-.8,0-1.4,0-1.4,0h-.3s-.4,0-.8,0c0,0,0,0,0,0-.2,0-.4,0-.6,0,0,0,0,0,0,0-.4,0-.9-.1-1.4-.2,0,0,0,0,0,0-.5-.1-1-.3-1.6-.5,0,0,0,0,0,0,0,0,0,0,0,.1,0,0,.1.2.2.2Z"/>
      <path class="cls-2" d="M16.4,17.3c-.1,0-.2,0-.2,0,0,0,0,.1,0,.2s0,.2,0,.2c0,0,.1,0,.2,0s.2,0,.2,0c0,0,0-.1,0-.2s0-.2,0-.2-.1,0-.2,0Z"/>
      <path class="cls-2" d="M16.4,18.4c0,0-.2,0-.2,0,0,0,0,.1,0,.2v1.6c0,0,0,.2,0,.2,0,0,.1,0,.2,0s.2,0,.2,0c0,0,0-.1,0-.2v-1.6c0,0,0-.2,0-.2s-.1,0-.2,0Z"/>
      <path class="cls-2" d="M18.5,18.3c-.2,0-.4,0-.5.2,0,0-.2.2-.2.3v-.2c0,0,0-.2,0-.2s-.1,0-.2,0-.2,0-.2,0c0,0,0,.1,0,.2v1.7c0,0,0,.2,0,.2s.1,0,.2,0,.2,0,.2,0c0,0,0-.1,0-.2v-.9c0-.2,0-.3.1-.4,0,0,.2-.1.4-.2h0c0,0,.1,0,.2,0s0-.1,0-.2c0,0,0-.1,0-.2s0,0-.1,0Z"/>
      <path class="cls-2" d="M20.6,18.5c-.2,0-.4-.1-.6-.1s-.3,0-.5,0c-.1,0-.3.1-.4.2,0,0-.2.2-.2.4s0,.3,0,.5,0,.4.1.6c0,.2.2.3.4.4.2,0,.4.1.6.1s.3,0,.5,0c.1,0,.3-.1.4-.2,0,0,.2-.2.2-.4,0-.1,0-.3,0-.5s0-.4-.1-.6c0-.2-.2-.3-.4-.4ZM20.5,19.9c0,.1-.1.2-.2.2,0,0-.2,0-.3,0-.2,0-.3,0-.4-.2-.1-.1-.2-.3-.2-.5s0-.3,0-.4c0-.1.1-.2.2-.2,0,0,.2,0,.3,0,.2,0,.3,0,.4.2.1.1.2.3.2.5s0,.3,0,.4Z"/>
      <path class="cls-2" d="M23.3,18.4c-.1,0-.3,0-.4,0s-.3,0-.5.1c-.1,0-.2.2-.3.3h0c0-.2,0-.3,0-.3s-.1,0-.2,0-.2,0-.2,0c0,0,0,.1,0,.2v1.7c0,0,0,.2,0,.2,0,0,.1,0,.2,0,.2,0,.3,0,.3-.3v-1c0-.2,0-.3.1-.4,0-.1.2-.2.4-.2s.2,0,.3.1c0,0,0,.2,0,.4v1.1c0,0,0,.2,0,.2s.1,0,.2,0,.2,0,.2,0c0,0,0-.1,0-.2v-1.1c0-.2,0-.4,0-.5s-.1-.2-.3-.3Z"/>
      <path class="cls-2" d="M25.4,20.3s0,0-.1,0c0,0,0,0-.1,0-.2,0-.3,0-.4-.1,0,0-.1-.2-.1-.4v-1.2h.6s0,0,0,0c0,0,0,0,0,0s0,0,0,0c0,0,0,0,0,0h-.6v-.6s0,0,0-.1c0,0,0,0,0,0s0,0-.1,0c0,0,0,0,0,.1v.6h-.3s0,0,0,0c0,0,0,0,0,0s0,0,0,0c0,0,0,0,0,0h.3v1.2c0,.2,0,.3,0,.4,0,.1.1.2.2.3s.2,0,.4,0,0,0,.2,0c0,0,.1,0,.1,0,0,0,0,0,0,0,0,0,0,0,0,0,0,0,0,0,0,0,0,0,0,0,0,0Z"/>
      <path class="cls-2" d="M27.3,18.5c-.1,0-.3,0-.4,0s-.4,0-.5.1c-.1,0-.2.2-.3.3v-1.3s0,0,0-.1c0,0,0,0,0,0s0,0-.1,0c0,0,0,0,0,.1v2.9s0,0,0,.1,0,0,.1,0c0,0,.1,0,.1-.1v-1.1c0-.2,0-.4.2-.5.1-.1.3-.2.5-.2s.3,0,.4.1c0,0,.1.3.1.5v1.2s0,0,0,.1c0,0,0,0,.1,0s0,0,0,0,0,0,0-.1v-1.3c0-.2,0-.3,0-.5,0-.1-.1-.2-.3-.3Z"/>
      <path class="cls-2" d="M29.3,18.4c-.2,0-.4,0-.5.1-.1,0-.2.2-.2.3v-.3s0,0,0-.1c0,0,0,0,0,0s0,0-.1,0c0,0,0,0,0,.1v1.9s0,0,0,.1,0,0,.1,0,0,0,.1,0c0,0,0,0,0-.1v-1.2c0-.2,0-.4.2-.5s.3-.2.5-.2h0s0,0,.1,0,0,0,0,0c0,0,0,0,0,0,0,0,0,0,0,0Z"/>
      <path class="cls-2" d="M31.4,18.6c0,0-.2-.2-.3-.2-.1,0-.2,0-.4,0s-.4,0-.5.1c-.2,0-.3.2-.4.4,0,.2-.1.4-.1.6s0,.4.1.6c0,.2.2.3.4.4.2,0,.4.1.6.1s.3,0,.4,0c.1,0,.2,0,.3-.2,0,0,0,0,0,0s0,0,0,0c0,0,0,0,0,0,0,0,0,0,0,0s0,0,0,0c0,0-.2.1-.3.2-.1,0-.2,0-.3,0-.3,0-.5,0-.6-.2-.1-.1-.2-.3-.2-.6h1.5s0,0,0,0c0,0,0,0,0,0,0-.2,0-.3,0-.4,0-.1-.1-.2-.2-.3ZM30,19.3c0-.1,0-.2,0-.3,0-.1.1-.2.3-.3s.3-.1.4-.1.3,0,.4,0c0,0,.2.2.2.3,0,.1,0,.2,0,.4h-1.4Z"/>
      <path class="cls-2" d="M33.5,18.5c-.1,0-.3,0-.4,0s-.2,0-.4,0-.3,0-.4.2c0,0,0,0,0,0,0,0,0,0,0,0,0,0,0,0,0,0,0,0,0,0,0,0s0,0,0,0c.1,0,.2-.1.3-.1.1,0,.2,0,.3,0,.2,0,.3,0,.4.1s.1.2.1.4v.2h-.1c-.3,0-.6,0-.8,0s-.3.1-.4.2c0,0-.1.2-.1.4s0,.2.1.3c0,0,.2.2.3.2.1,0,.2,0,.4,0s.2,0,.3,0c.1,0,.2-.1.3-.2,0,0,0-.1,0-.2v.3s0,0,0,.1,0,0,0,0,0,0,0,0c0,0,0,0,0-.1v-1.3c0-.2,0-.3,0-.5,0-.1-.1-.2-.3-.3ZM33.5,19.7c0,.1,0,.3,0,.4,0,.1-.1.2-.2.3,0,0-.2,0-.3,0s-.3,0-.4-.1c0,0-.1-.2-.1-.3s0-.2,0-.2.2-.1.3-.1.4,0,.6,0h.1Z"/>
      <path class="cls-2" d="M36.2,17.4s0,0,0,0c0,0,0,0,0,.1v1.3c0-.1-.1-.2-.2-.3-.1-.1-.3-.2-.5-.2s-.4,0-.5.1-.3.2-.3.4c0,.2-.1.4-.1.6s0,.4.1.6c0,.2.2.3.3.4s.3.1.5.1.4,0,.5-.2c.1,0,.2-.2.2-.3v.3s0,0,0,.1,0,0,.1,0,0,0,0,0c0,0,0,0,0-.1v-2.9s0,0,0-.1c0,0,0,0-.1,0ZM36,20c0,.1-.1.2-.3.3-.1,0-.2.1-.4.1-.2,0-.4,0-.5-.2-.1-.2-.2-.4-.2-.7s0-.3,0-.5c0-.1.1-.2.2-.3.1,0,.2-.1.4-.1.2,0,.4,0,.5.2s.2.4.2.7,0,.3,0,.5Z"/>
      <path class="cls-2" d="M40.6,20.9s-.4,9.1-.4,29.2c0,0-7,.8-13.7.7h-.3c-6.6.1-13.7-.7-13.7-.7,0-20-.4-29.1-.4-29.1l-2.7,2.9h0s0,0,0,0l-7.8-6.6,6.1-9.1c.2-.3.4-.5.6-.7,0,0,0,0,0,0,.2-.2.3-.4.5-.5,0,0,0,0,0,0,.3-.4.7-.7,1-1,0,0,0,0,0,0h0c1.3-1.2,2-1.5,2-1.5l4.3-1.8h0s0,0,0,0h.2c0,0,3.7-1.6,3.7-1.6,2.7,2,6.2,1.8,6.2,1.8h.3s1.9,0,4.1-.7c.7-.3,1.4-.6,2.1-1.1h0s0,0,0,0l3.8,1.6s0,0,0,0l4.3,1.8s.8.3,2,1.5c0,0,0,0,0,0,0,0,0,0,0,0,.1.1.3.3.4.4,0,0,0,0,.1.1.1.1.2.3.4.4,0,0,.1.1.2.2.1.1.2.3.3.4,0,0,.1.1.2.2.2.2.3.4.5.6,0,0,0,0,0,0l6,9.1c0-.1,0-.3-.1-.4l-6.1-9.2s0,0-.1-.1c-.1-.2-.3-.4-.4-.5,0,0-.1-.1-.2-.2-.1-.2-.3-.3-.4-.4,0,0,0-.1-.1-.2-.2-.2-.3-.3-.5-.5,0,0,0,0,0,0-.2-.2-.4-.4-.5-.5,0,0,0,0,0,0,0,0,0,0,0,0-1.3-1.2-2.1-1.6-2.2-1.6l-4.3-1.8s0,0,0,0L32.2,0s0,0,0,0c0,0-.2,0-.3,0,0,0,0,0,0,0h0s0,0,0,0c0,0-.1,0-.2,0,0,0,0,0,0,0,0,0,0,0,0,0,0,0,0,0,0,0,0,0,0,0,0,0-.6.4-1.3.8-1.9,1-2,.7-3.8.7-3.8.7h-.3s-3.2.1-5.7-1.7c0,0,0,0,0,0,0,0,0,0,0,0,0,0,0,0,0,0,0,0-.1,0-.2,0,0,0,0,0,0,0,0,0,0,0,0,0,0,0,0,0,0,0,0,0-.2,0-.3,0,0,0,0,0,0,0l-3.8,1.6s0,0,0,0l-4.3,1.8c-.1,0-1,.4-2.3,1.6,0,0,0,0,0,0,0,0,0,0,0,0-.1.1-.3.3-.4.4,0,0-.1.1-.2.2,0,.1-.2.2-.3.3,0,0-.2.2-.2.3-.1.1-.2.3-.3.4,0,0-.1.1-.2.2-.2.2-.4.4-.5.7L.1,16.8c-.2.3-.1.7.1,1l7.8,6.6s0,0,.1,0c0,0,0,0,.1,0,0,0,0,0,.1,0,0,0,0,0,.1,0s0,0,0,0c0,0,.1,0,.2,0,0,0,0,0,.1,0,0,0,.1,0,.2-.1,0,0,0,0,0,0l1.5-1.6c.1,3.5.4,12.4.4,27.3s.3.7.7.7c0,0,6.3.7,12.5.7s.8,0,1.3,0h.3c6.6.1,13.7-.7,13.8-.7.4,0,.7-.4.7-.7,0-14.9.2-23.8.4-27.3l1.5,1.6c0,0,.2.1.2.2,0,0,0,0,0,0,0,0,.1,0,.2,0,0,0,0,0,0,0,0,0,0,0,.1,0,0,0,0,0,0,0,0,0,.1,0,.2-.1,0,0,0,0,0,0l7.8-6.6c.1-.1.2-.3.3-.5,0,0,0,0,0-.1l-7.8,6.6-2.7-2.9Z"/>
      <path class="cls-2" d="M45,8s0,0,0,0c-.2-.2-.3-.4-.5-.6,0,0-.1-.2-.2-.2-.1-.1-.2-.3-.3-.4,0,0-.1-.1-.2-.2-.1-.1-.2-.3-.4-.4,0,0,0,0-.1-.1-.1-.1-.3-.3-.4-.4,0,0,0,0,0,0,0,0,0,0,0,0-1.3-1.2-2-1.5-2-1.5l-4.3-1.8s0,0,0,0l-3.8-1.6s0,0,0,0h0c-.7.5-1.4.8-2.1,1.1-2.1.8-4.1.7-4.1.7h-.3s-3.5.1-6.2-1.8l-3.7,1.5h-.2c0,0,0,0,0,0h0s-4.3,1.8-4.3,1.8c0,0-.8.3-2,1.5h0s0,0,0,0c-.3.3-.6.6-1,1,0,0,0,0,0,0-.2.2-.3.4-.5.5,0,0,0,0,0,0-.2.2-.4.5-.6.7L1.5,17.2l7.8,6.6h0s0,0,0,0l2.7-2.9s.4,9.1.4,29.1c0,0,7,.8,13.7.7h.3c6.6.1,13.7-.7,13.7-.7,0-20.1.4-29.2.4-29.2l2.7,2.9,7.8-6.6s0,0,0,0l-6-9.1ZM21,2.5c.5.2,1.1.4,1.6.5,0,0,0,0,0,0,.5.1,1,.2,1.4.2,0,0,0,0,0,0,.2,0,.4,0,.6,0,0,0,0,0,0,0,.5,0,.8,0,.8,0h.3c0,0,.6,0,1.4,0,0,0,0,0,0,0,.2,0,.4,0,.6,0,0,0,0,0,0,0,.2,0,.4,0,.6-.1,0,0,.1,0,.2,0,.2,0,.5-.1.7-.2,0,0,0,0,0,0,.2,0,.4-.1.7-.2,0,0,0,0,.1,0,0,0,0,0,0,0,0,.1-.1.2-.2.3,0,0,0,0-.1.1,0,.1-.2.2-.3.3,0,0,0,0,0,0-.1.1-.3.2-.4.4,0,0,0,0,0,0-.8.7-1.9,1.2-3.2,1.1h-.3c-.3,0-.5,0-.8,0h0c-.2,0-.5,0-.7-.1,0,0-.2,0-.2,0-.1,0-.2,0-.3-.1-.1,0-.2-.1-.4-.2,0,0-.1,0-.2-.1-.1,0-.2-.2-.4-.2,0,0,0,0-.1,0-.1,0-.2-.2-.3-.3,0,0,0,0-.1-.1,0,0-.2-.2-.3-.3,0,0-.1-.1-.2-.2,0,0-.1-.2-.2-.2,0,0-.1-.2-.2-.2,0,0,0,0,0-.1,0,0,0,0,0,0ZM17.5,2.3l1.3-.5s0,0,0,.1c0,0,0,0,0,0,0,0,0,.1.1.2.7,1.4,2.2,3.6,4.9,4.2,0,0,.1,0,.2,0,.2,0,.3,0,.5,0,.1,0,.3,0,.4,0,0,0,.2,0,.2,0s.1,0,.2,0h.3c.3,0,.6,0,.9,0,0,0,.1,0,.2,0,.2,0,.4,0,.6-.1,0,0,.1,0,.2,0,.2,0,.4-.1.6-.2,0,0,0,0,0,0,.2,0,.4-.2.7-.3,0,0,0,0,0,0,.2,0,.3-.2.5-.3,0,0,.1,0,.2-.1.1,0,.2-.2.3-.3,0,0,.1,0,.2-.1.1-.1.2-.2.3-.3,0,0,0,0,.1-.1.1-.1.3-.3.4-.4,0,0,0-.1.1-.2,0-.1.2-.2.2-.3,0,0,0-.1.1-.2,0-.1.2-.2.2-.3,0,0,0,0,0-.1.2-.3.3-.6.5-.9,0,0,0,0,0,0,0,0,0-.1,0-.2l2.5,1c-.7,1.9-2.9,6.2-9.1,6.2h-.4c-6.1,0-8.4-4.3-9.1-6.2l1.2-.5ZM10.6,20.6l-2,2.1-6.8-5.7,5.7-8.5s0,0,.1-.1c.2-.3.4-.6.7-.8,0-.1.2-.2.3-.3.1-.1.2-.2.3-.4.7,1.7,2.1,6.1,1.8,13.8ZM39.1,20.9c0,.4-.4,9.5-.4,28.5-1.9.2-7.6.7-12.9.7h-.3c-5.3,0-11-.5-12.9-.7,0-18.6-.4-27.7-.4-28.5.4-8.9-1.4-13.7-2.1-15.2.8-.7,1.3-.9,1.4-.9l3.6-1.5c.8,2.1,3.4,7.1,10.4,7.1h.4c7,0,9.7-5.1,10.5-7.1l3.6,1.5s.5.2,1.4.9c-.7,1.5-2.5,6.3-2.1,15.2ZM42.6,22.8l-2-2.1c-.3-7.7,1.1-12,1.8-13.8,0,0,.2.2.2.3.1.1.2.3.4.4.2.3.5.6.7.9l5.7,8.6-6.8,5.7Z"/>
    </g>
  </g>
</svg>