<?xml version="1.0" encoding="UTF-8"?>
<svg id="Layer_2" data-name="Layer 2" xmlns="http://www.w3.org/2000/svg" viewBox="0 0 49.3 48.3">
  <defs>
    <style>
      .cls-1 {
        fill: #fff;
      }

      .cls-2 {
        fill: #494949;
      }
    </style>
  </defs>
  <g id="Layer_1-2" data-name="Layer 1">
    <g>
      <path class="cls-1" d="M29.3,16.9c-.1,0-.2,0-.4,0s-.3,0-.4.1-.2.2-.3.3c0,0,0,.2,0,.3h1.4c0-.1,0-.3,0-.4,0-.1-.1-.2-.2-.3Z"/>
      <path class="cls-1" d="M18.3,17c-.1,0-.2,0-.3,0,0,0-.1.1-.2.2,0,.1,0,.2,0,.4,0,.2,0,.4.2.5.1.1.2.2.4.2s.2,0,.3,0c0,0,.1-.1.2-.2,0-.1,0-.2,0-.4,0-.2,0-.4-.2-.5-.1-.1-.2-.2-.4-.2Z"/>
      <path class="cls-1" d="M33.6,16.9c-.1,0-.3,0-.4.1-.1,0-.2.2-.2.3,0,.1,0,.3,0,.5,0,.3,0,.5.2.7.1.2.3.2.5.2s.3,0,.4-.1c.1,0,.2-.2.3-.3,0-.1,0-.3,0-.5,0-.3,0-.5-.2-.7s-.3-.2-.5-.2Z"/>
      <path class="cls-1" d="M31,17.8c-.2,0-.3,0-.3.1s0,.1,0,.2,0,.2.1.3c0,0,.2.1.4.1s.2,0,.3,0c0,0,.2-.1.2-.3,0-.1,0-.2,0-.4h0c0-.1-.1-.1-.1-.1-.3,0-.5,0-.6,0Z"/>
      <path class="cls-1" d="M6.7,5.5c0,.1-.2.2-.3.3-.2.2-.4.5-.7.8,0,0,0,0-.1.1L0,15.3l6.8,5.7,2-2.1c.3-7.7-1.1-12-1.8-13.8-.1.1-.2.2-.3.4Z"/>
      <path class="cls-1" d="M41.9,6.7c-.3-.3-.5-.6-.7-.9-.1-.1-.2-.3-.4-.4,0,0-.2-.2-.2-.3-.7,1.7-2.1,6.1-1.8,13.8l2,2.1,6.8-5.7-5.7-8.6Z"/>
      <path class="cls-1" d="M49.3,15.4h0s0,0,0,0c0,0,0,0,0,0h0s0,0,0,0Z"/>
      <path class="cls-1" d="M23.6,7.2h.4c6.1,0,8.4-4.3,9.1-6.2L30.6,0c0,0,0,.1,0,.2,0,0,0,0,0,0-.1.3-.3.5-.5.9,0,0,0,0,0,.1,0,.1-.1.2-.2.3,0,0,0,.1-.1.2,0,.1-.2.2-.2.3,0,0,0,.1-.1.2-.1.2-.3.3-.4.4,0,0,0,0-.1.1-.1.1-.2.2-.3.3,0,0-.1,0-.2.1-.1,0-.2.2-.3.3,0,0-.1,0-.2.1-.2.1-.3.2-.5.3,0,0,0,0,0,0-.2.1-.4.2-.7.3,0,0,0,0,0,0-.2,0-.4.1-.6.2,0,0-.1,0-.2,0-.2,0-.4,0-.6.1,0,0-.1,0-.2,0-.3,0-.6,0-.9,0h-.3c0,0-.1,0-.2,0,0,0-.2,0-.2,0-.1,0-.3,0-.4,0-.2,0-.3,0-.5,0,0,0-.1,0-.2,0-2.7-.6-4.2-2.7-4.9-4.2,0,0,0-.2-.1-.2,0,0,0,0,0,0,0,0,0,0,0-.1l-1.3.5-1.2.5c.7,1.9,2.9,6.2,9.1,6.2Z"/>
      <path class="cls-1" d="M38.1,3.1l-3.6-1.5c-.8,2.1-3.4,7.1-10.5,7.1h-.4c-7,0-9.7-5.1-10.4-7.1l-3.6,1.5s-.5.2-1.4.9c.7,1.5,2.5,6.3,2.1,15.2,0,.8.4,9.9.4,28.5,1.9.2,7.6.7,12.9.7h.3c5.3,0,11-.5,12.9-.7,0-19,.4-28.1.4-28.5-.4-8.8,1.4-13.6,2.1-15.2-.8-.7-1.3-.9-1.4-.9ZM15,18.6c0,0,0,.2,0,.2,0,0-.1,0-.2,0s-.2,0-.2,0c0,0,0-.1,0-.2v-1.6c0,0,0-.2,0-.2,0,0,.1,0,.2,0s.2,0,.2,0,0,.1,0,.2v1.6ZM14.9,16.1c0,0-.1,0-.2,0s-.2,0-.2,0c0,0,0-.1,0-.2s0-.2,0-.2c0,0,.1,0,.2,0s.2,0,.2,0,0,.1,0,.2,0,.2,0,.2ZM16.9,17s-.1,0-.2,0h0c-.2,0-.3,0-.4.2,0,0-.1.2-.1.4v.9c0,0,0,.2,0,.2,0,0-.1,0-.2,0s-.2,0-.2,0,0-.1,0-.2v-1.7c0,0,0-.2,0-.2,0,0,.1,0,.2,0s.2,0,.2,0,0,.1,0,.2v.2c0-.1.1-.2.2-.3.1,0,.3-.1.5-.2,0,0,.1,0,.1,0s0,0,0,.2c0,0,0,.1,0,.2ZM19.3,18.2c0,.1-.1.3-.2.4,0,.1-.2.2-.4.2-.1,0-.3,0-.5,0s-.4,0-.6-.1c-.2,0-.3-.2-.4-.4,0-.2-.1-.4-.1-.6s0-.3,0-.5.1-.3.2-.4c0-.1.2-.2.4-.2.1,0,.3,0,.5,0s.4,0,.6.1c.2,0,.3.2.4.4,0,.2.1.4.1.6s0,.3,0,.5ZM21.9,18.6c0,0,0,.2,0,.2,0,0-.1,0-.2,0s-.2,0-.2,0,0-.1,0-.2v-1.1c0-.2,0-.3,0-.4,0,0-.2-.1-.3-.1s-.3,0-.4.2c0,.1-.1.2-.1.4v1c0,.2,0,.3-.3.3s-.2,0-.2,0c0,0,0-.1,0-.2v-1.7c0,0,0-.2,0-.2,0,0,.1,0,.2,0s.2,0,.2,0,0,.1,0,.2h0c0,0,.1-.1.3-.2.1,0,.3-.1.5-.1s.3,0,.4,0,.2.2.3.3,0,.3,0,.5v1.1ZM23.7,18.8s0,0,0,0c0,0,0,0-.1,0,0,0-.1,0-.2,0-.2,0-.3,0-.4,0s-.2-.1-.2-.3c0-.1,0-.2,0-.4v-1.2h-.3s0,0,0,0c0,0,0,0,0,0s0,0,0,0c0,0,0,0,0,0h.3v-.6s0,0,0-.1c0,0,0,0,.1,0s0,0,0,0c0,0,0,0,0,.1v.6h.6s0,0,0,0c0,0,0,0,0,0s0,0,0,0c0,0,0,0,0,0h-.6v1.2c0,.2,0,.3.1.4,0,0,.2.1.4.1s.1,0,.1,0c0,0,0,0,.1,0s0,0,0,0c0,0,0,0,0,0s0,0,0,0ZM25.8,18.7s0,0,0,.1,0,0,0,0,0,0-.1,0c0,0,0,0,0-.1v-1.2c0-.2,0-.4-.1-.5,0,0-.2-.1-.4-.1s-.4,0-.5.2c-.1.1-.2.3-.2.5v1.1c0,0,0,.1-.1.1s0,0-.1,0,0,0,0-.1v-2.9s0,0,0-.1c0,0,0,0,.1,0s0,0,0,0c0,0,0,0,0,.1v1.3c0-.1.1-.2.3-.3.1,0,.3-.1.5-.1s.3,0,.4,0c.1,0,.2.2.3.3,0,.1,0,.3,0,.5v1.3ZM27.7,16.8s0,0-.1,0h0c-.2,0-.4,0-.5.2s-.2.3-.2.5v1.2s0,0,0,.1c0,0,0,0-.1,0s0,0-.1,0,0,0,0-.1v-1.9s0,0,0-.1c0,0,0,0,.1,0s0,0,0,0c0,0,0,0,0,.1v.3c0-.1.1-.2.2-.3.1,0,.3-.1.5-.1,0,0,0,0,0,0,0,0,0,0,0,0,0,0,0,0,0,0ZM29.8,17.8s0,0,0,0h-1.5c0,.3,0,.5.2.6.1.2.3.2.6.2s.2,0,.3,0c.1,0,.2,0,.3-.2,0,0,0,0,0,0s0,0,0,0c0,0,0,0,0,0,0,0,0,0,0,0s0,0,0,0c0,0-.2.1-.3.2-.1,0-.3,0-.4,0-.2,0-.4,0-.6-.1-.2,0-.3-.2-.4-.4,0-.2-.1-.4-.1-.6s0-.4.1-.6c0-.2.2-.3.4-.4.2,0,.3-.1.5-.1s.3,0,.4,0c.1,0,.2.1.3.2s.1.2.2.3c0,.1,0,.3,0,.4s0,0,0,0ZM32.1,18.7s0,0,0,.1c0,0,0,0,0,0s0,0,0,0,0,0,0-.1v-.3c0,0,0,.1,0,.2,0,0-.2.1-.3.2-.1,0-.2,0-.3,0s-.3,0-.4,0c-.1,0-.2-.1-.3-.2,0,0-.1-.2-.1-.3s0-.3.1-.4c0,0,.2-.2.4-.2s.5,0,.8,0h.1v-.2c0-.2,0-.3-.1-.4s-.2-.1-.4-.1-.2,0-.3,0c-.1,0-.2,0-.3.1,0,0,0,0,0,0s0,0,0,0c0,0,0,0,0,0,0,0,0,0,0,0,0,0,0,0,0,0,.1,0,.3-.1.4-.2s.3,0,.4,0c.2,0,.3,0,.4,0,.1,0,.2.1.3.3,0,.1,0,.3,0,.5v1.3ZM34.6,18.7s0,0,0,.1c0,0,0,0,0,0s0,0-.1,0,0,0,0-.1v-.3c0,.1-.1.2-.2.3-.1.1-.3.2-.5.2s-.4,0-.5-.1-.3-.2-.3-.4c0-.2-.1-.4-.1-.6s0-.4.1-.6c0-.2.2-.3.3-.4s.3-.1.5-.1.4,0,.5.2c.1,0,.2.2.2.3v-1.3s0,0,0-.1c0,0,0,0,0,0s0,0,.1,0c0,0,0,0,0,.1v2.9Z"/>
      <path class="cls-1" d="M19.5,1.2c0,0,.1.2.2.2,0,0,.1.1.2.2,0,0,.2.2.3.3,0,0,0,0,.1.1.1,0,.2.2.3.3,0,0,0,0,.1,0,.1,0,.2.2.4.2,0,0,.1,0,.2.1.1,0,.2.1.4.2.1,0,.2,0,.3.1,0,0,.2,0,.2,0,.2,0,.4.1.7.1h0c.3,0,.5,0,.8,0h.3c1.4,0,2.4-.5,3.2-1.1,0,0,0,0,0,0,.1-.1.3-.2.4-.4,0,0,0,0,0,0,.1-.1.2-.2.3-.3,0,0,0,0,.1-.1,0-.1.2-.2.2-.3,0,0,0,0,0,0,0,0,0,0-.1,0-.2,0-.4.2-.7.2,0,0,0,0,0,0-.2,0-.5.1-.7.2,0,0-.1,0-.2,0-.2,0-.4,0-.6.1,0,0,0,0,0,0-.2,0-.4,0-.6,0,0,0,0,0,0,0-.8,0-1.4,0-1.4,0h-.3s-.4,0-.8,0c0,0,0,0,0,0-.2,0-.4,0-.6,0,0,0,0,0,0,0-.4,0-.9-.1-1.4-.2,0,0,0,0,0,0-.5-.1-1-.3-1.6-.5,0,0,0,0,0,0,0,0,0,0,0,.1,0,0,.1.2.2.2Z"/>
      <path class="cls-2" d="M14.7,15.6c-.1,0-.2,0-.2,0,0,0,0,.1,0,.2s0,.2,0,.2c0,0,.1,0,.2,0s.2,0,.2,0c0,0,0-.1,0-.2s0-.2,0-.2-.1,0-.2,0Z"/>
      <path class="cls-2" d="M14.7,16.6c0,0-.2,0-.2,0,0,0,0,.1,0,.2v1.6c0,0,0,.2,0,.2,0,0,.1,0,.2,0s.2,0,.2,0c0,0,0-.1,0-.2v-1.6c0,0,0-.2,0-.2s-.1,0-.2,0Z"/>
      <path class="cls-2" d="M16.8,16.6c-.2,0-.4,0-.5.2,0,0-.2.2-.2.3v-.2c0,0,0-.2,0-.2s-.1,0-.2,0-.2,0-.2,0c0,0,0,.1,0,.2v1.7c0,0,0,.2,0,.2s.1,0,.2,0,.2,0,.2,0c0,0,0-.1,0-.2v-.9c0-.2,0-.3.1-.4,0,0,.2-.1.4-.2h0c0,0,.1,0,.2,0s0-.1,0-.2c0,0,0-.1,0-.2s0,0-.1,0Z"/>
      <path class="cls-2" d="M18.9,16.7c-.2,0-.4-.1-.6-.1s-.3,0-.5,0c-.1,0-.3.1-.4.2,0,0-.2.2-.2.4s0,.3,0,.5,0,.4.1.6c0,.2.2.3.4.4.2,0,.4.1.6.1s.3,0,.5,0c.1,0,.3-.1.4-.2,0,0,.2-.2.2-.4,0-.1,0-.3,0-.5s0-.4-.1-.6c0-.2-.2-.3-.4-.4ZM18.8,18.1c0,.1-.1.2-.2.2,0,0-.2,0-.3,0-.2,0-.3,0-.4-.2-.1-.1-.2-.3-.2-.5s0-.3,0-.4c0-.1.1-.2.2-.2,0,0,.2,0,.3,0,.2,0,.3,0,.4.2.1.1.2.3.2.5s0,.3,0,.4Z"/>
      <path class="cls-2" d="M21.6,16.7c-.1,0-.3,0-.4,0s-.3,0-.5.1c-.1,0-.2.2-.3.3h0c0-.2,0-.3,0-.3s-.1,0-.2,0-.2,0-.2,0c0,0,0,.1,0,.2v1.7c0,0,0,.2,0,.2,0,0,.1,0,.2,0,.2,0,.3,0,.3-.3v-1c0-.2,0-.3.1-.4,0-.1.2-.2.4-.2s.2,0,.3.1c0,0,0,.2,0,.4v1.1c0,0,0,.2,0,.2s.1,0,.2,0,.2,0,.2,0c0,0,0-.1,0-.2v-1.1c0-.2,0-.4,0-.5s-.1-.2-.3-.3Z"/>
      <path class="cls-2" d="M23.7,18.6s0,0-.1,0c0,0,0,0-.1,0-.2,0-.3,0-.4-.1,0,0-.1-.2-.1-.4v-1.2h.6s0,0,0,0c0,0,0,0,0,0s0,0,0,0c0,0,0,0,0,0h-.6v-.6s0,0,0-.1c0,0,0,0,0,0s0,0-.1,0c0,0,0,0,0,.1v.6h-.3s0,0,0,0c0,0,0,0,0,0s0,0,0,0c0,0,0,0,0,0h.3v1.2c0,.2,0,.3,0,.4,0,.1.1.2.2.3s.2,0,.4,0,0,0,.2,0c0,0,.1,0,.1,0,0,0,0,0,0,0,0,0,0,0,0,0,0,0,0,0,0,0,0,0,0,0,0,0Z"/>
      <path class="cls-2" d="M25.5,16.7c-.1,0-.3,0-.4,0s-.4,0-.5.1c-.1,0-.2.2-.3.3v-1.3s0,0,0-.1c0,0,0,0,0,0s0,0-.1,0c0,0,0,0,0,.1v2.9s0,0,0,.1,0,0,.1,0c0,0,.1,0,.1-.1v-1.1c0-.2,0-.4.2-.5.1-.1.3-.2.5-.2s.3,0,.4.1c0,0,.1.3.1.5v1.2s0,0,0,.1c0,0,0,0,.1,0s0,0,0,0,0,0,0-.1v-1.3c0-.2,0-.3,0-.5,0-.1-.1-.2-.3-.3Z"/>
      <path class="cls-2" d="M27.6,16.6c-.2,0-.4,0-.5.1-.1,0-.2.2-.2.3v-.3s0,0,0-.1c0,0,0,0,0,0s0,0-.1,0c0,0,0,0,0,.1v1.9s0,0,0,.1,0,0,.1,0,0,0,.1,0c0,0,0,0,0-.1v-1.2c0-.2,0-.4.2-.5s.3-.2.5-.2h0s0,0,.1,0,0,0,0,0c0,0,0,0,0,0,0,0,0,0,0,0Z"/>
      <path class="cls-2" d="M29.6,16.9c0,0-.2-.2-.3-.2-.1,0-.2,0-.4,0s-.4,0-.5.1c-.2,0-.3.2-.4.4,0,.2-.1.4-.1.6s0,.4.1.6c0,.2.2.3.4.4.2,0,.4.1.6.1s.3,0,.4,0c.1,0,.2,0,.3-.2,0,0,0,0,0,0s0,0,0,0c0,0,0,0,0,0,0,0,0,0,0,0s0,0,0,0c0,0-.2.1-.3.2-.1,0-.2,0-.3,0-.3,0-.5,0-.6-.2-.1-.1-.2-.3-.2-.6h1.5s0,0,0,0c0,0,0,0,0,0,0-.2,0-.3,0-.4,0-.1-.1-.2-.2-.3ZM28.2,17.6c0-.1,0-.2,0-.3,0-.1.1-.2.3-.3s.3-.1.4-.1.3,0,.4,0c0,0,.2.2.2.3,0,.1,0,.2,0,.4h-1.4Z"/>
      <path class="cls-2" d="M31.7,16.7c-.1,0-.3,0-.4,0s-.2,0-.4,0-.3,0-.4.2c0,0,0,0,0,0,0,0,0,0,0,0,0,0,0,0,0,0,0,0,0,0,0,0s0,0,0,0c.1,0,.2-.1.3-.1.1,0,.2,0,.3,0,.2,0,.3,0,.4.1s.1.2.1.4v.2h-.1c-.3,0-.6,0-.8,0s-.3.1-.4.2c0,0-.1.2-.1.4s0,.2.1.3c0,0,.2.2.3.2.1,0,.2,0,.4,0s.2,0,.3,0c.1,0,.2-.1.3-.2,0,0,0-.1,0-.2v.3s0,0,0,.1,0,0,0,0,0,0,0,0c0,0,0,0,0-.1v-1.3c0-.2,0-.3,0-.5,0-.1-.1-.2-.3-.3ZM31.8,17.9c0,.1,0,.3,0,.4,0,.1-.1.2-.2.3,0,0-.2,0-.3,0s-.3,0-.4-.1c0,0-.1-.2-.1-.3s0-.2,0-.2.2-.1.3-.1.4,0,.6,0h.1Z"/>
      <path class="cls-2" d="M34.5,15.7s0,0,0,0c0,0,0,0,0,.1v1.3c0-.1-.1-.2-.2-.3-.1-.1-.3-.2-.5-.2s-.4,0-.5.1-.3.2-.3.4c0,.2-.1.4-.1.6s0,.4.1.6c0,.2.2.3.3.4s.3.1.5.1.4,0,.5-.2c.1,0,.2-.2.2-.3v.3s0,0,0,.1,0,0,.1,0,0,0,0,0c0,0,0,0,0-.1v-2.9s0,0,0-.1c0,0,0,0-.1,0ZM34.3,18.2c0,.1-.1.2-.3.3-.1,0-.2.1-.4.1-.2,0-.4,0-.5-.2-.1-.2-.2-.4-.2-.7s0-.3,0-.5c0-.1.1-.2.2-.3.1,0,.2-.1.4-.1.2,0,.4,0,.5.2s.2.4.2.7,0,.3,0,.5Z"/>
    </g>
  </g>
</svg>